<?xml version="1.0" encoding="iso-8859-1"?>
<!-- Generator: Adobe Illustrator 19.0.0, SVG Export Plug-In . SVG Version: 6.00 Build 0)  -->
<svg version="1.1" id="Layer_1" xmlns="http://www.w3.org/2000/svg" xmlns:xlink="http://www.w3.org/1999/xlink" x="0px" y="0px"
	 viewBox="0 0 512 512" style="enable-background:new 0 0 512 512;" xml:space="preserve">
<g>
	<g>
		<g>
			<path d="M40.421,441.937H8.084c-4.465,0-8.084,3.62-8.084,8.084c0,4.465,3.62,8.084,8.084,8.084h32.337
				c4.465,0,8.084-3.62,8.084-8.084C48.505,445.556,44.886,441.937,40.421,441.937z"/>
			<path d="M288.337,161.684c-4.465,0-8.084,3.62-8.084,8.084s3.62,8.084,8.084,8.084c22.289,0,40.421-18.132,40.421-40.421
				s-18.132-40.421-40.421-40.421s-40.421,18.132-40.421,40.421c0,9.964,3.657,19.536,10.297,26.953
				c2.979,3.326,8.09,3.609,11.416,0.631c3.326-2.978,3.609-8.089,0.631-11.416c-3.982-4.447-6.175-10.189-6.175-16.167
				c0-13.373,10.879-24.253,24.253-24.253c13.373,0,24.253,10.879,24.253,24.253C312.589,150.805,301.71,161.684,288.337,161.684z"
				/>
			<path d="M253.305,385.347c0-4.465-3.62-8.084-8.084-8.084H58.248c-20.493-34.974-31.301-74.854-31.301-115.64
				C26.947,135.323,129.7,32.571,256,32.571c44.569,0,87.77,12.808,124.931,37.038c3.739,2.438,8.748,1.384,11.187-2.357
				c2.438-3.74,1.383-8.748-2.357-11.187c-39.796-25.947-86.05-39.661-133.762-39.661c-65.501,0-127.081,25.507-173.398,71.823
				c-46.317,46.316-71.822,107.897-71.822,173.398c0,40.514,9.969,80.205,28.938,115.64H8.084c-4.465,0-8.084,3.62-8.084,8.084
				c0,4.465,3.62,8.084,8.084,8.084H53.54c0.045,0,0.091,0.001,0.136,0.001c0.045,0,0.091,0,0.136-0.001h191.409
				C249.686,393.432,253.305,389.812,253.305,385.347z"/>
			<path d="M35.032,70.063c19.316,0,35.032-15.716,35.032-35.032C70.063,15.716,54.347,0,35.032,0C15.716,0,0,15.716,0,35.032
				C0,54.347,15.716,70.063,35.032,70.063z M35.032,16.168c10.401,0,18.863,8.463,18.863,18.863
				c0,10.401-8.463,18.863-18.863,18.863c-10.401,0-18.863-8.463-18.863-18.863C16.168,24.631,24.631,16.168,35.032,16.168z"/>
			<path d="M433.853,134.737c19.316,0,35.032-15.716,35.032-35.032s-15.716-35.032-35.032-35.032
				c-19.316,0-35.032,15.716-35.032,35.032S414.537,134.737,433.853,134.737z M433.853,80.842c10.401,0,18.863,8.463,18.863,18.863
				c0,10.401-8.463,18.863-18.863,18.863c-10.401,0-18.863-8.463-18.863-18.863C414.989,89.305,423.452,80.842,433.853,80.842z"/>
			<path d="M460.437,141.114c-3.919,2.139-5.364,7.049-3.225,10.969c18.214,33.382,27.841,71.261,27.841,109.541
				c0,40.784-10.808,80.665-31.301,115.64h-14.51c-4.465,0-8.084,3.62-8.084,8.084c0,4.465,3.62,8.084,8.084,8.084h18.946
				c0.045,0,0.091,0.001,0.136,0.001c0.045,0,0.091,0,0.136-0.001h34.677c4.465,0,8.084-3.62,8.084-8.084
				c0-4.465-3.62-8.084-8.084-8.084h-20.854c18.969-35.435,28.938-75.125,28.938-115.64c0-40.979-10.31-81.535-29.816-117.286
				C469.267,140.419,464.357,138.976,460.437,141.114z"/>
			<path d="M245.221,291.032c-7.43,0-13.474-6.044-13.474-13.474c0-4.465-3.62-8.084-8.084-8.084c-4.465,0-8.084,3.62-8.084,8.084
				c0,16.345,13.297,29.642,29.642,29.642c16.345,0,29.642-13.297,29.642-29.642c0-16.345-13.297-29.642-29.642-29.642
				c-4.465,0-8.084,3.62-8.084,8.084c0,4.465,3.62,8.084,8.084,8.084c7.43,0,13.474,6.044,13.474,13.474
				S252.651,291.032,245.221,291.032z"/>
			<path d="M455.411,420.379h-24.827c-4.065-40.74-38.498-72.675-80.268-72.771v-32.863h88.926c10.401,0,18.863-8.463,18.863-18.863
				v-32.337c0-10.401-8.463-18.863-18.863-18.863h-88.926v-2.695c0-4.465-3.62-8.084-8.084-8.084c-4.465,0-8.084,3.62-8.084,8.084
				v105.621c-41.769,0.096-76.203,32.032-80.268,72.771h-19.438c-4.465,0-8.084,3.62-8.084,8.084c0,4.465,3.62,8.084,8.084,8.084
				h220.968c4.465,0,8.084-3.62,8.084-8.084C463.495,423.999,459.875,420.379,455.411,420.379z M350.316,260.851h88.926
				c1.485,0,2.695,1.209,2.695,2.695v32.337c0,1.485-1.209,2.695-2.695,2.695h-88.926V260.851z M270.151,420.379
				c3.989-31.868,31.251-56.602,64.183-56.602h15.797c32.932,0,60.194,24.734,64.183,56.602H270.151z"/>
			<path d="M503.916,495.832h-32.337c-4.465,0-8.084,3.62-8.084,8.084c0,4.465,3.62,8.084,8.084,8.084h32.337
				c4.465,0,8.084-3.62,8.084-8.084C512,499.451,508.38,495.832,503.916,495.832z"/>
			<path d="M202.105,463.495h-21.558c-4.465,0-8.084,3.62-8.084,8.084c0,4.465,3.62,8.084,8.084,8.084h21.558
				c4.465,0,8.084-3.62,8.084-8.084C210.189,467.114,206.57,463.495,202.105,463.495z"/>
			<path d="M385.347,463.495h-75.453c-4.465,0-8.084,3.62-8.084,8.084c0,4.465,3.62,8.084,8.084,8.084h75.453
				c4.465,0,8.084-3.62,8.084-8.084C393.432,467.114,389.812,463.495,385.347,463.495z"/>
			<path d="M126.653,420.379h-21.558c-4.465,0-8.084,3.62-8.084,8.084c0,4.465,3.62,8.084,8.084,8.084h21.558
				c4.465,0,8.084-3.62,8.084-8.084C134.737,423.999,131.117,420.379,126.653,420.379z"/>
			<path d="M110.484,188.632c4.465,0,8.084-3.62,8.084-8.084c0-4.465-3.62-8.084-8.084-8.084c-25.26,0-45.81,20.55-45.81,45.811
				s20.55,45.811,45.81,45.811c25.26,0,45.811-20.55,45.811-45.811c0-12.411-4.882-24.031-13.746-32.718
				c-3.188-3.125-8.307-3.073-11.432,0.114c-3.125,3.188-3.074,8.307,0.114,11.432c5.737,5.622,8.896,13.142,8.896,21.172
				c0,16.345-13.297,29.642-29.642,29.642c-16.345,0-29.642-13.297-29.642-29.642S94.139,188.632,110.484,188.632z"/>
			<path d="M105.095,495.832H72.758c-4.465,0-8.084,3.62-8.084,8.084c0,4.465,3.62,8.084,8.084,8.084h32.337
				c4.465,0,8.084-3.62,8.084-8.084C113.179,499.451,109.559,495.832,105.095,495.832z"/>
		</g>
	</g>
</g>
<g>
</g>
<g>
</g>
<g>
</g>
<g>
</g>
<g>
</g>
<g>
</g>
<g>
</g>
<g>
</g>
<g>
</g>
<g>
</g>
<g>
</g>
<g>
</g>
<g>
</g>
<g>
</g>
<g>
</g>
</svg>
